<mxfile host="Electron" agent="Mozilla/5.0 (X11; Linux x86_64) AppleWebKit/537.36 (KHTML, like Gecko) draw.io/28.0.6 Chrome/138.0.7204.100 Electron/37.2.3 Safari/537.36" version="28.0.6">
  <diagram name="Página-1" id="aznG7XMQ4_Wmwqx1q81S">
    <mxGraphModel dx="872" dy="2872" grid="1" gridSize="10" guides="1" tooltips="1" connect="1" arrows="1" fold="1" page="1" pageScale="1" pageWidth="827" pageHeight="1169" background="none" math="0" shadow="0">
      <root>
        <mxCell id="0" />
        <mxCell id="1" parent="0" />
        <mxCell id="NQUgrGv-_fWd8Ujpap0--375" style="rounded=0;orthogonalLoop=1;jettySize=auto;html=1;entryX=1;entryY=0.5;entryDx=0;entryDy=0;endArrow=none;endFill=0;" parent="1" target="NQUgrGv-_fWd8Ujpap0--113" edge="1">
          <mxGeometry relative="1" as="geometry">
            <mxPoint x="957" y="-467" as="sourcePoint" />
            <mxPoint x="1135" y="97" as="targetPoint" />
            <Array as="points">
              <mxPoint x="1070" y="-468" />
            </Array>
          </mxGeometry>
        </mxCell>
        <mxCell id="NQUgrGv-_fWd8Ujpap0--436" value="(1,N)" style="edgeLabel;html=1;align=center;verticalAlign=middle;resizable=0;points=[];" parent="NQUgrGv-_fWd8Ujpap0--375" connectable="0" vertex="1">
          <mxGeometry x="0.5" y="-1" relative="1" as="geometry">
            <mxPoint y="1" as="offset" />
          </mxGeometry>
        </mxCell>
        <mxCell id="NQUgrGv-_fWd8Ujpap0--69" value="Usuario" style="whiteSpace=wrap;html=1;align=center;" parent="1" vertex="1">
          <mxGeometry x="856" y="-500" width="100" height="40" as="geometry" />
        </mxCell>
        <mxCell id="NQUgrGv-_fWd8Ujpap0--405" style="rounded=0;orthogonalLoop=1;jettySize=auto;html=1;exitX=0.109;exitY=1.093;exitDx=0;exitDy=0;entryX=0.5;entryY=1;entryDx=0;entryDy=0;endArrow=none;endFill=0;exitPerimeter=0;" parent="1" edge="1">
          <mxGeometry relative="1" as="geometry">
            <mxPoint x="1281.9" y="-459.78" as="sourcePoint" />
            <Array as="points">
              <mxPoint x="1281" y="252" />
              <mxPoint x="459" y="252" />
            </Array>
            <mxPoint x="459" y="134.01999999999998" as="targetPoint" />
          </mxGeometry>
        </mxCell>
        <mxCell id="NQUgrGv-_fWd8Ujpap0--406" value="(1,1)" style="edgeLabel;html=1;align=center;verticalAlign=middle;resizable=0;points=[];" parent="NQUgrGv-_fWd8Ujpap0--405" connectable="0" vertex="1">
          <mxGeometry x="-0.0416" relative="1" as="geometry">
            <mxPoint as="offset" />
          </mxGeometry>
        </mxCell>
        <mxCell id="NQUgrGv-_fWd8Ujpap0--72" value="Publicación" style="whiteSpace=wrap;html=1;align=center;" parent="1" vertex="1">
          <mxGeometry x="1272" y="-502.5" width="100" height="40" as="geometry" />
        </mxCell>
        <mxCell id="NQUgrGv-_fWd8Ujpap0--112" value="" style="edgeStyle=orthogonalEdgeStyle;rounded=0;orthogonalLoop=1;jettySize=auto;html=1;endArrow=none;endFill=0;" parent="1" source="NQUgrGv-_fWd8Ujpap0--113" target="NQUgrGv-_fWd8Ujpap0--119" edge="1">
          <mxGeometry relative="1" as="geometry" />
        </mxCell>
        <mxCell id="NQUgrGv-_fWd8Ujpap0--408" value="(0,N)" style="edgeLabel;html=1;align=center;verticalAlign=middle;resizable=0;points=[];" parent="NQUgrGv-_fWd8Ujpap0--112" connectable="0" vertex="1">
          <mxGeometry x="0.4222" y="1" relative="1" as="geometry">
            <mxPoint x="7" y="-1" as="offset" />
          </mxGeometry>
        </mxCell>
        <mxCell id="NQUgrGv-_fWd8Ujpap0--113" value="recibe" style="rhombus;whiteSpace=wrap;html=1;" parent="1" vertex="1">
          <mxGeometry x="991" y="53.019999999999996" width="80" height="80" as="geometry" />
        </mxCell>
        <mxCell id="NQUgrGv-_fWd8Ujpap0--285" value="" style="edgeStyle=orthogonalEdgeStyle;rounded=0;orthogonalLoop=1;jettySize=auto;html=1;endArrow=none;endFill=0;" parent="1" source="NQUgrGv-_fWd8Ujpap0--119" edge="1">
          <mxGeometry relative="1" as="geometry">
            <mxPoint x="747" y="58.019999999999996" as="targetPoint" />
          </mxGeometry>
        </mxCell>
        <mxCell id="NQUgrGv-_fWd8Ujpap0--293" value="" style="edgeStyle=orthogonalEdgeStyle;rounded=0;orthogonalLoop=1;jettySize=auto;html=1;endArrow=none;endFill=0;" parent="1" source="NQUgrGv-_fWd8Ujpap0--119" target="NQUgrGv-_fWd8Ujpap0--292" edge="1">
          <mxGeometry relative="1" as="geometry" />
        </mxCell>
        <mxCell id="NQUgrGv-_fWd8Ujpap0--407" value="(1,2)" style="edgeLabel;html=1;align=center;verticalAlign=middle;resizable=0;points=[];" parent="NQUgrGv-_fWd8Ujpap0--293" connectable="0" vertex="1">
          <mxGeometry x="-0.0124" y="1" relative="1" as="geometry">
            <mxPoint as="offset" />
          </mxGeometry>
        </mxCell>
        <mxCell id="NQUgrGv-_fWd8Ujpap0--119" value="Notificacion" style="whiteSpace=wrap;html=1;align=center;" parent="1" vertex="1">
          <mxGeometry x="697" y="73.02" width="100" height="40" as="geometry" />
        </mxCell>
        <mxCell id="NQUgrGv-_fWd8Ujpap0--123" value="fecha_notificacion" style="ellipse;whiteSpace=wrap;html=1;align=center;" parent="1" vertex="1">
          <mxGeometry x="981" y="143.02" width="100" height="40" as="geometry" />
        </mxCell>
        <mxCell id="NQUgrGv-_fWd8Ujpap0--124" value="" style="endArrow=none;html=1;rounded=0;entryX=0.5;entryY=1;entryDx=0;entryDy=0;exitX=0.5;exitY=0;exitDx=0;exitDy=0;" parent="1" source="NQUgrGv-_fWd8Ujpap0--123" target="NQUgrGv-_fWd8Ujpap0--113" edge="1">
          <mxGeometry relative="1" as="geometry">
            <mxPoint x="927" y="303.02" as="sourcePoint" />
            <mxPoint x="1087" y="303.02" as="targetPoint" />
          </mxGeometry>
        </mxCell>
        <mxCell id="NQUgrGv-_fWd8Ujpap0--431" value="" style="rounded=0;orthogonalLoop=1;jettySize=auto;html=1;endArrow=none;endFill=0;exitX=0.5;exitY=0;exitDx=0;exitDy=0;" parent="1" source="NQUgrGv-_fWd8Ujpap0--422" target="NQUgrGv-_fWd8Ujpap0--196" edge="1">
          <mxGeometry relative="1" as="geometry" />
        </mxCell>
        <mxCell id="NQUgrGv-_fWd8Ujpap0--181" style="edgeStyle=orthogonalEdgeStyle;rounded=0;orthogonalLoop=1;jettySize=auto;html=1;exitX=0.5;exitY=1;exitDx=0;exitDy=0;" parent="1" edge="1">
          <mxGeometry relative="1" as="geometry">
            <mxPoint x="1581" y="-1033" as="sourcePoint" />
            <mxPoint x="1581" y="-1033" as="targetPoint" />
          </mxGeometry>
        </mxCell>
        <mxCell id="NQUgrGv-_fWd8Ujpap0--196" value="estado" style="ellipse;whiteSpace=wrap;html=1;" parent="1" vertex="1">
          <mxGeometry x="440" y="-230" width="80" height="40" as="geometry" />
        </mxCell>
        <mxCell id="NQUgrGv-_fWd8Ujpap0--284" value="descripcion" style="ellipse;whiteSpace=wrap;html=1;" parent="1" vertex="1">
          <mxGeometry x="707" y="15.02" width="80" height="40" as="geometry" />
        </mxCell>
        <mxCell id="NQUgrGv-_fWd8Ujpap0--292" value="Genera" style="rhombus;whiteSpace=wrap;html=1;" parent="1" vertex="1">
          <mxGeometry x="420" y="55.019999999999996" width="80" height="80" as="geometry" />
        </mxCell>
        <mxCell id="Y1WvBeN4gRHwkrYCIG_H-10" value="" style="shape=link;html=1;rounded=0;exitX=0.5;exitY=1;exitDx=0;exitDy=0;entryX=0.5;entryY=0;entryDx=0;entryDy=0;" parent="1" source="NQUgrGv-_fWd8Ujpap0--69" edge="1">
          <mxGeometry relative="1" as="geometry">
            <mxPoint x="906" y="-460" as="sourcePoint" />
            <mxPoint x="906" y="-455" as="targetPoint" />
          </mxGeometry>
        </mxCell>
        <mxCell id="NQUgrGv-_fWd8Ujpap0--427" style="edgeStyle=orthogonalEdgeStyle;rounded=0;orthogonalLoop=1;jettySize=auto;html=1;exitX=0;exitY=0;exitDx=16.25;exitDy=27.5;exitPerimeter=0;endArrow=none;endFill=0;" parent="1" source="NQUgrGv-_fWd8Ujpap0--420" target="NQUgrGv-_fWd8Ujpap0--422" edge="1">
          <mxGeometry relative="1" as="geometry" />
        </mxCell>
        <mxCell id="NQUgrGv-_fWd8Ujpap0--428" style="edgeStyle=orthogonalEdgeStyle;rounded=0;orthogonalLoop=1;jettySize=auto;html=1;exitX=0;exitY=0;exitDx=32.5;exitDy=0;exitPerimeter=0;entryX=0.5;entryY=1;entryDx=0;entryDy=0;endArrow=none;endFill=0;" parent="1" source="NQUgrGv-_fWd8Ujpap0--420" target="NQUgrGv-_fWd8Ujpap0--424" edge="1">
          <mxGeometry relative="1" as="geometry" />
        </mxCell>
        <mxCell id="NQUgrGv-_fWd8Ujpap0--429" style="edgeStyle=orthogonalEdgeStyle;rounded=0;orthogonalLoop=1;jettySize=auto;html=1;exitX=0;exitY=0;exitDx=48.75;exitDy=27.5;exitPerimeter=0;entryX=0.5;entryY=1;entryDx=0;entryDy=0;endArrow=none;endFill=0;" parent="1" source="NQUgrGv-_fWd8Ujpap0--420" target="NQUgrGv-_fWd8Ujpap0--425" edge="1">
          <mxGeometry relative="1" as="geometry" />
        </mxCell>
        <mxCell id="NQUgrGv-_fWd8Ujpap0--420" value="ES&lt;div&gt;&lt;span style=&quot;background-color: transparent; color: light-dark(rgb(0, 0, 0), rgb(255, 255, 255));&quot;&gt;UN&lt;/span&gt;&lt;/div&gt;" style="verticalLabelPosition=middle;verticalAlign=middle;html=1;shape=mxgraph.basic.acute_triangle;dx=0.5;labelPosition=center;align=center;rotation=0;" parent="1" vertex="1">
          <mxGeometry x="565" y="-80" width="65" height="55" as="geometry" />
        </mxCell>
        <mxCell id="NQUgrGv-_fWd8Ujpap0--421" style="rounded=0;orthogonalLoop=1;jettySize=auto;html=1;exitX=0;exitY=0;exitDx=0;exitDy=0;entryX=0.5;entryY=1;entryDx=0;entryDy=0;entryPerimeter=0;endArrow=none;endFill=0;" parent="1" source="NQUgrGv-_fWd8Ujpap0--119" target="NQUgrGv-_fWd8Ujpap0--420" edge="1">
          <mxGeometry relative="1" as="geometry" />
        </mxCell>
        <mxCell id="NQUgrGv-_fWd8Ujpap0--422" value="NotifAmistad" style="whiteSpace=wrap;html=1;" parent="1" vertex="1">
          <mxGeometry x="430" y="-160" width="100" height="30" as="geometry" />
        </mxCell>
        <mxCell id="NQUgrGv-_fWd8Ujpap0--424" value="NotifPubli" style="whiteSpace=wrap;html=1;" parent="1" vertex="1">
          <mxGeometry x="552.5" y="-160" width="90" height="30" as="geometry" />
        </mxCell>
        <mxCell id="NQUgrGv-_fWd8Ujpap0--425" value="NotifPubliGrupo" style="whiteSpace=wrap;html=1;" parent="1" vertex="1">
          <mxGeometry x="680" y="-160" width="100" height="30" as="geometry" />
        </mxCell>
        <mxCell id="NQUgrGv-_fWd8Ujpap0--426" style="edgeStyle=orthogonalEdgeStyle;rounded=0;orthogonalLoop=1;jettySize=auto;html=1;exitX=0.5;exitY=1;exitDx=0;exitDy=0;" parent="1" source="NQUgrGv-_fWd8Ujpap0--425" target="NQUgrGv-_fWd8Ujpap0--425" edge="1">
          <mxGeometry relative="1" as="geometry" />
        </mxCell>
        <mxCell id="99R8j6O8JTns3BZzm69x-6" value="Actor" style="shape=umlActor;verticalLabelPosition=bottom;verticalAlign=top;html=1;outlineConnect=0;" parent="1" vertex="1">
          <mxGeometry x="1535" y="-1000" width="30" height="60" as="geometry" />
        </mxCell>
        <mxCell id="99R8j6O8JTns3BZzm69x-8" value="" style="ellipse;shape=cloud;whiteSpace=wrap;html=1;" parent="1" vertex="1">
          <mxGeometry x="1490" y="-962.98" width="120" height="80" as="geometry" />
        </mxCell>
        <mxCell id="99R8j6O8JTns3BZzm69x-9" value="" style="endArrow=classic;html=1;rounded=0;" parent="1" edge="1">
          <mxGeometry relative="1" as="geometry">
            <mxPoint x="1560" y="-940" as="sourcePoint" />
            <mxPoint x="1500" y="-1010" as="targetPoint" />
          </mxGeometry>
        </mxCell>
        <mxCell id="99R8j6O8JTns3BZzm69x-10" value="" style="shape=message;html=1;outlineConnect=0;" parent="99R8j6O8JTns3BZzm69x-9" vertex="1">
          <mxGeometry width="20" height="14" relative="1" as="geometry">
            <mxPoint x="-10" y="-7" as="offset" />
          </mxGeometry>
        </mxCell>
        <mxCell id="99R8j6O8JTns3BZzm69x-16" value="Que buen tp loco" style="shape=callout;whiteSpace=wrap;html=1;perimeter=calloutPerimeter;position2=0.18;" parent="1" vertex="1">
          <mxGeometry x="1544" y="-1050" width="99" height="60" as="geometry" />
        </mxCell>
        <mxCell id="heFnk6ymBudnLmRZltwZ-2" value="&lt;u&gt;id_mensaje&lt;/u&gt;" style="ellipse;whiteSpace=wrap;html=1;" parent="1" vertex="1">
          <mxGeometry x="304" y="-720" width="70" height="40" as="geometry" />
        </mxCell>
        <mxCell id="heFnk6ymBudnLmRZltwZ-35" style="edgeStyle=orthogonalEdgeStyle;rounded=0;orthogonalLoop=1;jettySize=auto;html=1;exitX=0.5;exitY=1;exitDx=0;exitDy=0;entryX=0.5;entryY=0;entryDx=0;entryDy=0;endArrow=none;endFill=0;" parent="1" source="heFnk6ymBudnLmRZltwZ-4" target="heFnk6ymBudnLmRZltwZ-2" edge="1">
          <mxGeometry relative="1" as="geometry" />
        </mxCell>
        <mxCell id="heFnk6ymBudnLmRZltwZ-4" value="Mensaje" style="rounded=0;whiteSpace=wrap;html=1;" parent="1" vertex="1">
          <mxGeometry x="300" y="-840" width="78" height="40" as="geometry" />
        </mxCell>
        <mxCell id="heFnk6ymBudnLmRZltwZ-10" value="Recibe" style="rhombus;whiteSpace=wrap;html=1;" parent="1" vertex="1">
          <mxGeometry x="370" y="-980" width="60" height="58" as="geometry" />
        </mxCell>
        <mxCell id="heFnk6ymBudnLmRZltwZ-13" value="Usuario" style="rounded=0;whiteSpace=wrap;html=1;" parent="1" vertex="1">
          <mxGeometry x="300" y="-1110" width="78" height="40" as="geometry" />
        </mxCell>
        <mxCell id="heFnk6ymBudnLmRZltwZ-18" value="(1,M)" style="text;html=1;align=center;verticalAlign=middle;resizable=0;points=[];autosize=1;strokeColor=none;fillColor=none;" parent="1" vertex="1">
          <mxGeometry x="240" y="-910" width="50" height="30" as="geometry" />
        </mxCell>
        <mxCell id="heFnk6ymBudnLmRZltwZ-19" value="(1,N)" style="text;html=1;align=center;verticalAlign=middle;resizable=0;points=[];autosize=1;strokeColor=none;fillColor=none;" parent="1" vertex="1">
          <mxGeometry x="240" y="-1010" width="50" height="30" as="geometry" />
        </mxCell>
        <mxCell id="heFnk6ymBudnLmRZltwZ-20" value="(1,M)" style="text;html=1;align=center;verticalAlign=middle;resizable=0;points=[];autosize=1;strokeColor=none;fillColor=none;" parent="1" vertex="1">
          <mxGeometry x="392" y="-910" width="50" height="30" as="geometry" />
        </mxCell>
        <mxCell id="heFnk6ymBudnLmRZltwZ-21" value="(0,N)" style="text;html=1;align=center;verticalAlign=middle;resizable=0;points=[];autosize=1;strokeColor=none;fillColor=none;" parent="1" vertex="1">
          <mxGeometry x="397" y="-1010" width="45" height="26" as="geometry" />
        </mxCell>
        <mxCell id="heFnk6ymBudnLmRZltwZ-45" style="edgeStyle=orthogonalEdgeStyle;rounded=0;orthogonalLoop=1;jettySize=auto;html=1;exitX=1;exitY=0.5;exitDx=0;exitDy=0;entryX=0;entryY=0.5;entryDx=0;entryDy=0;endArrow=none;endFill=0;" parent="1" source="heFnk6ymBudnLmRZltwZ-22" target="heFnk6ymBudnLmRZltwZ-40" edge="1">
          <mxGeometry relative="1" as="geometry" />
        </mxCell>
        <mxCell id="heFnk6ymBudnLmRZltwZ-22" value="fecha&lt;div&gt;envio&lt;/div&gt;" style="ellipse;whiteSpace=wrap;html=1;" parent="1" vertex="1">
          <mxGeometry x="160" y="-971" width="80" height="40" as="geometry" />
        </mxCell>
        <mxCell id="heFnk6ymBudnLmRZltwZ-36" value="estado" style="ellipse;whiteSpace=wrap;html=1;" parent="1" vertex="1">
          <mxGeometry x="209" y="-720" width="70" height="40" as="geometry" />
        </mxCell>
        <mxCell id="heFnk6ymBudnLmRZltwZ-37" value="contenido" style="ellipse;whiteSpace=wrap;html=1;" parent="1" vertex="1">
          <mxGeometry x="400" y="-720" width="70" height="40" as="geometry" />
        </mxCell>
        <mxCell id="heFnk6ymBudnLmRZltwZ-40" value="Envia" style="rhombus;whiteSpace=wrap;html=1;" parent="1" vertex="1">
          <mxGeometry x="250" y="-980" width="60" height="58" as="geometry" />
        </mxCell>
        <mxCell id="heFnk6ymBudnLmRZltwZ-48" value="" style="endArrow=none;html=1;rounded=0;entryX=0.5;entryY=0;entryDx=0;entryDy=0;exitX=0.75;exitY=1;exitDx=0;exitDy=0;" parent="1" source="heFnk6ymBudnLmRZltwZ-4" target="heFnk6ymBudnLmRZltwZ-37" edge="1">
          <mxGeometry width="50" height="50" relative="1" as="geometry">
            <mxPoint x="340" y="-690" as="sourcePoint" />
            <mxPoint x="390" y="-740" as="targetPoint" />
          </mxGeometry>
        </mxCell>
        <mxCell id="heFnk6ymBudnLmRZltwZ-49" value="" style="endArrow=none;html=1;rounded=0;entryX=0.5;entryY=0;entryDx=0;entryDy=0;exitX=0.25;exitY=1;exitDx=0;exitDy=0;" parent="1" source="heFnk6ymBudnLmRZltwZ-4" target="heFnk6ymBudnLmRZltwZ-36" edge="1">
          <mxGeometry width="50" height="50" relative="1" as="geometry">
            <mxPoint x="310" y="-780" as="sourcePoint" />
            <mxPoint x="390" y="-720" as="targetPoint" />
          </mxGeometry>
        </mxCell>
        <mxCell id="heFnk6ymBudnLmRZltwZ-51" value="username" style="ellipse;whiteSpace=wrap;html=1;" parent="1" vertex="1">
          <mxGeometry x="420" y="-1230" width="80" height="40" as="geometry" />
        </mxCell>
        <mxCell id="heFnk6ymBudnLmRZltwZ-53" value="cantidad&lt;br&gt;ingresos" style="ellipse;whiteSpace=wrap;html=1;" parent="1" vertex="1">
          <mxGeometry x="334" y="-1250" width="80" height="40" as="geometry" />
        </mxCell>
        <mxCell id="heFnk6ymBudnLmRZltwZ-55" value="email" style="ellipse;whiteSpace=wrap;html=1;" parent="1" vertex="1">
          <mxGeometry x="240" y="-1250" width="80" height="40" as="geometry" />
        </mxCell>
        <mxCell id="heFnk6ymBudnLmRZltwZ-56" value="&lt;u&gt;id_usuario&lt;/u&gt;" style="ellipse;whiteSpace=wrap;html=1;" parent="1" vertex="1">
          <mxGeometry x="160" y="-1230" width="80" height="40" as="geometry" />
        </mxCell>
        <mxCell id="heFnk6ymBudnLmRZltwZ-57" value="nombre" style="ellipse;whiteSpace=wrap;html=1;" parent="1" vertex="1">
          <mxGeometry x="80" y="-1260" width="80" height="40" as="geometry" />
        </mxCell>
        <mxCell id="heFnk6ymBudnLmRZltwZ-58" value="fecha&lt;br&gt;alta" style="ellipse;whiteSpace=wrap;html=1;" parent="1" vertex="1">
          <mxGeometry x="395" y="-1290" width="80" height="40" as="geometry" />
        </mxCell>
        <mxCell id="heFnk6ymBudnLmRZltwZ-61" value="" style="endArrow=none;html=1;rounded=0;exitX=0.5;exitY=1;exitDx=0;exitDy=0;entryX=0;entryY=0;entryDx=0;entryDy=0;" parent="1" source="heFnk6ymBudnLmRZltwZ-57" target="heFnk6ymBudnLmRZltwZ-13" edge="1">
          <mxGeometry width="50" height="50" relative="1" as="geometry">
            <mxPoint x="375" y="-1090" as="sourcePoint" />
            <mxPoint x="339" y="-1040" as="targetPoint" />
          </mxGeometry>
        </mxCell>
        <mxCell id="heFnk6ymBudnLmRZltwZ-62" value="" style="endArrow=none;html=1;rounded=0;entryX=0.25;entryY=0;entryDx=0;entryDy=0;exitX=0.5;exitY=1;exitDx=0;exitDy=0;" parent="1" source="heFnk6ymBudnLmRZltwZ-68" target="heFnk6ymBudnLmRZltwZ-13" edge="1">
          <mxGeometry width="50" height="50" relative="1" as="geometry">
            <mxPoint x="312" y="-1220" as="sourcePoint" />
            <mxPoint x="400" y="-1051" as="targetPoint" />
          </mxGeometry>
        </mxCell>
        <mxCell id="heFnk6ymBudnLmRZltwZ-66" value="fecha&lt;div&gt;nacimiento&lt;/div&gt;" style="ellipse;whiteSpace=wrap;html=1;" parent="1" vertex="1">
          <mxGeometry x="500" y="-1260" width="80" height="40" as="geometry" />
        </mxCell>
        <mxCell id="heFnk6ymBudnLmRZltwZ-67" value="pais" style="ellipse;whiteSpace=wrap;html=1;" parent="1" vertex="1">
          <mxGeometry x="284" y="-1300" width="80" height="40" as="geometry" />
        </mxCell>
        <mxCell id="heFnk6ymBudnLmRZltwZ-68" value="apellido" style="ellipse;whiteSpace=wrap;html=1;" parent="1" vertex="1">
          <mxGeometry x="180" y="-1290" width="80" height="40" as="geometry" />
        </mxCell>
        <mxCell id="heFnk6ymBudnLmRZltwZ-70" value="" style="endArrow=none;html=1;rounded=0;entryX=0.5;entryY=0;entryDx=0;entryDy=0;exitX=0.5;exitY=1;exitDx=0;exitDy=0;" parent="1" source="heFnk6ymBudnLmRZltwZ-67" target="heFnk6ymBudnLmRZltwZ-13" edge="1">
          <mxGeometry width="50" height="50" relative="1" as="geometry">
            <mxPoint x="264" y="-1169" as="sourcePoint" />
            <mxPoint x="392" y="-1113" as="targetPoint" />
          </mxGeometry>
        </mxCell>
        <mxCell id="heFnk6ymBudnLmRZltwZ-71" value="" style="endArrow=none;html=1;rounded=0;exitX=0.5;exitY=1;exitDx=0;exitDy=0;entryX=0.75;entryY=0;entryDx=0;entryDy=0;" parent="1" source="heFnk6ymBudnLmRZltwZ-58" target="heFnk6ymBudnLmRZltwZ-13" edge="1">
          <mxGeometry width="50" height="50" relative="1" as="geometry">
            <mxPoint x="440" y="-1140" as="sourcePoint" />
            <mxPoint x="510" y="-1090" as="targetPoint" />
          </mxGeometry>
        </mxCell>
        <mxCell id="heFnk6ymBudnLmRZltwZ-72" value="" style="endArrow=none;html=1;rounded=0;entryX=1;entryY=0;entryDx=0;entryDy=0;exitX=0.5;exitY=1;exitDx=0;exitDy=0;" parent="1" source="heFnk6ymBudnLmRZltwZ-66" target="heFnk6ymBudnLmRZltwZ-13" edge="1">
          <mxGeometry width="50" height="50" relative="1" as="geometry">
            <mxPoint x="540" y="-1130" as="sourcePoint" />
            <mxPoint x="689" y="-1030" as="targetPoint" />
          </mxGeometry>
        </mxCell>
        <mxCell id="heFnk6ymBudnLmRZltwZ-73" value="" style="endArrow=none;html=1;rounded=0;exitX=0.5;exitY=1;exitDx=0;exitDy=0;entryX=0.142;entryY=0;entryDx=0;entryDy=0;entryPerimeter=0;" parent="1" source="heFnk6ymBudnLmRZltwZ-56" target="heFnk6ymBudnLmRZltwZ-13" edge="1">
          <mxGeometry width="50" height="50" relative="1" as="geometry">
            <mxPoint x="300" y="-1220" as="sourcePoint" />
            <mxPoint x="490" y="-1030" as="targetPoint" />
          </mxGeometry>
        </mxCell>
        <mxCell id="heFnk6ymBudnLmRZltwZ-74" value="" style="endArrow=none;html=1;rounded=0;exitX=0.5;exitY=1;exitDx=0;exitDy=0;entryX=0.361;entryY=0.002;entryDx=0;entryDy=0;entryPerimeter=0;" parent="1" source="heFnk6ymBudnLmRZltwZ-55" target="heFnk6ymBudnLmRZltwZ-13" edge="1">
          <mxGeometry width="50" height="50" relative="1" as="geometry">
            <mxPoint x="500" y="-1120" as="sourcePoint" />
            <mxPoint x="690" y="-930" as="targetPoint" />
          </mxGeometry>
        </mxCell>
        <mxCell id="heFnk6ymBudnLmRZltwZ-75" value="" style="endArrow=none;html=1;rounded=0;exitX=0.5;exitY=1;exitDx=0;exitDy=0;entryX=0.632;entryY=0.003;entryDx=0;entryDy=0;entryPerimeter=0;" parent="1" source="heFnk6ymBudnLmRZltwZ-53" target="heFnk6ymBudnLmRZltwZ-13" edge="1">
          <mxGeometry width="50" height="50" relative="1" as="geometry">
            <mxPoint x="490" y="-1220" as="sourcePoint" />
            <mxPoint x="680" y="-1030" as="targetPoint" />
          </mxGeometry>
        </mxCell>
        <mxCell id="heFnk6ymBudnLmRZltwZ-76" value="" style="endArrow=none;html=1;rounded=0;exitX=0.5;exitY=1;exitDx=0;exitDy=0;entryX=0.854;entryY=-0.006;entryDx=0;entryDy=0;entryPerimeter=0;" parent="1" source="heFnk6ymBudnLmRZltwZ-51" target="heFnk6ymBudnLmRZltwZ-13" edge="1">
          <mxGeometry width="50" height="50" relative="1" as="geometry">
            <mxPoint x="460" y="-1110" as="sourcePoint" />
            <mxPoint x="650" y="-920" as="targetPoint" />
          </mxGeometry>
        </mxCell>
        <mxCell id="xzjHd8r5uHAUz85wasI7-4" style="edgeStyle=orthogonalEdgeStyle;rounded=0;orthogonalLoop=1;jettySize=auto;html=1;exitX=0.5;exitY=1;exitDx=0;exitDy=0;entryX=0.5;entryY=0;entryDx=0;entryDy=0;endArrow=none;endFill=0;" edge="1" parent="1" source="heFnk6ymBudnLmRZltwZ-77" target="xzjHd8r5uHAUz85wasI7-2">
          <mxGeometry relative="1" as="geometry" />
        </mxCell>
        <mxCell id="heFnk6ymBudnLmRZltwZ-77" value="Es&lt;div&gt;amigo&lt;/div&gt;" style="rhombus;whiteSpace=wrap;html=1;" parent="1" vertex="1">
          <mxGeometry x="70" y="-1124.5" width="70" height="69" as="geometry" />
        </mxCell>
        <mxCell id="heFnk6ymBudnLmRZltwZ-78" style="edgeStyle=orthogonalEdgeStyle;rounded=0;orthogonalLoop=1;jettySize=auto;html=1;exitX=0;exitY=0.25;exitDx=0;exitDy=0;entryX=0.833;entryY=0.328;entryDx=0;entryDy=0;entryPerimeter=0;endArrow=none;endFill=0;" parent="1" source="heFnk6ymBudnLmRZltwZ-13" target="heFnk6ymBudnLmRZltwZ-77" edge="1">
          <mxGeometry relative="1" as="geometry">
            <Array as="points">
              <mxPoint x="300" y="-1102" />
              <mxPoint x="220" y="-1102" />
            </Array>
          </mxGeometry>
        </mxCell>
        <mxCell id="heFnk6ymBudnLmRZltwZ-79" style="edgeStyle=orthogonalEdgeStyle;rounded=0;orthogonalLoop=1;jettySize=auto;html=1;exitX=0;exitY=0.75;exitDx=0;exitDy=0;entryX=0.833;entryY=0.672;entryDx=0;entryDy=0;entryPerimeter=0;endArrow=none;endFill=0;" parent="1" source="heFnk6ymBudnLmRZltwZ-13" target="heFnk6ymBudnLmRZltwZ-77" edge="1">
          <mxGeometry relative="1" as="geometry">
            <Array as="points">
              <mxPoint x="300" y="-1078" />
              <mxPoint x="220" y="-1078" />
            </Array>
          </mxGeometry>
        </mxCell>
        <mxCell id="heFnk6ymBudnLmRZltwZ-80" value="(0,M)" style="text;html=1;align=center;verticalAlign=middle;resizable=0;points=[];autosize=1;strokeColor=none;fillColor=none;" parent="1" vertex="1">
          <mxGeometry x="130" y="-1130" width="50" height="30" as="geometry" />
        </mxCell>
        <mxCell id="heFnk6ymBudnLmRZltwZ-82" value="(1,M)" style="text;html=1;align=center;verticalAlign=middle;resizable=0;points=[];autosize=1;strokeColor=none;fillColor=none;" parent="1" vertex="1">
          <mxGeometry x="130" y="-1080" width="50" height="30" as="geometry" />
        </mxCell>
        <mxCell id="heFnk6ymBudnLmRZltwZ-86" value="" style="endArrow=none;html=1;rounded=0;entryX=1;entryY=0.5;entryDx=0;entryDy=0;exitX=0;exitY=0.5;exitDx=0;exitDy=0;" parent="1" source="heFnk6ymBudnLmRZltwZ-84" target="heFnk6ymBudnLmRZltwZ-13" edge="1">
          <mxGeometry width="50" height="50" relative="1" as="geometry">
            <mxPoint x="540" y="-1210" as="sourcePoint" />
            <mxPoint x="378" y="-1100" as="targetPoint" />
          </mxGeometry>
        </mxCell>
        <mxCell id="heFnk6ymBudnLmRZltwZ-88" value="Publicación" style="rounded=0;whiteSpace=wrap;html=1;" parent="1" vertex="1">
          <mxGeometry x="992" y="-1112.5" width="78" height="40" as="geometry" />
        </mxCell>
        <mxCell id="heFnk6ymBudnLmRZltwZ-89" value="" style="endArrow=none;html=1;rounded=0;entryX=1;entryY=0.5;entryDx=0;entryDy=0;exitX=0;exitY=0.5;exitDx=0;exitDy=0;" parent="1" source="heFnk6ymBudnLmRZltwZ-88" target="heFnk6ymBudnLmRZltwZ-84" edge="1">
          <mxGeometry width="50" height="50" relative="1" as="geometry">
            <mxPoint x="964" y="-1022.5" as="sourcePoint" />
            <mxPoint x="734" y="-1162.5" as="targetPoint" />
          </mxGeometry>
        </mxCell>
        <mxCell id="heFnk6ymBudnLmRZltwZ-98" style="edgeStyle=orthogonalEdgeStyle;rounded=0;orthogonalLoop=1;jettySize=auto;html=1;entryX=0.5;entryY=1;entryDx=0;entryDy=0;endArrow=none;endFill=0;" parent="1" source="heFnk6ymBudnLmRZltwZ-90" target="heFnk6ymBudnLmRZltwZ-95" edge="1">
          <mxGeometry relative="1" as="geometry" />
        </mxCell>
        <mxCell id="heFnk6ymBudnLmRZltwZ-90" value="Publica" style="rhombus;whiteSpace=wrap;html=1;" parent="1" vertex="1">
          <mxGeometry x="644" y="-1194.5" width="70" height="70" as="geometry" />
        </mxCell>
        <mxCell id="heFnk6ymBudnLmRZltwZ-91" value="" style="endArrow=none;html=1;rounded=0;entryX=1;entryY=0.5;entryDx=0;entryDy=0;exitX=0;exitY=0.25;exitDx=0;exitDy=0;" parent="1" source="heFnk6ymBudnLmRZltwZ-88" target="heFnk6ymBudnLmRZltwZ-90" edge="1">
          <mxGeometry width="50" height="50" relative="1" as="geometry">
            <mxPoint x="961" y="-1112.5" as="sourcePoint" />
            <mxPoint x="719" y="-1052.5" as="targetPoint" />
          </mxGeometry>
        </mxCell>
        <mxCell id="heFnk6ymBudnLmRZltwZ-92" value="" style="endArrow=none;html=1;rounded=0;exitX=0;exitY=0.5;exitDx=0;exitDy=0;entryX=1;entryY=0.25;entryDx=0;entryDy=0;" parent="1" source="heFnk6ymBudnLmRZltwZ-90" target="heFnk6ymBudnLmRZltwZ-13" edge="1">
          <mxGeometry width="50" height="50" relative="1" as="geometry">
            <mxPoint x="630" y="-1050" as="sourcePoint" />
            <mxPoint x="420" y="-1120" as="targetPoint" />
          </mxGeometry>
        </mxCell>
        <mxCell id="heFnk6ymBudnLmRZltwZ-93" value="(0,N)" style="text;html=1;align=center;verticalAlign=middle;resizable=0;points=[];autosize=1;strokeColor=none;fillColor=none;" parent="1" vertex="1">
          <mxGeometry x="470" y="-1150" width="50" height="30" as="geometry" />
        </mxCell>
        <mxCell id="heFnk6ymBudnLmRZltwZ-94" value="(1,M)" style="text;html=1;align=center;verticalAlign=middle;resizable=0;points=[];autosize=1;strokeColor=none;fillColor=none;" parent="1" vertex="1">
          <mxGeometry x="885" y="-1142.5" width="50" height="30" as="geometry" />
        </mxCell>
        <mxCell id="heFnk6ymBudnLmRZltwZ-95" value="Fecha&lt;div&gt;publicacion&lt;/div&gt;" style="ellipse;whiteSpace=wrap;html=1;" parent="1" vertex="1">
          <mxGeometry x="639" y="-1260" width="80" height="40" as="geometry" />
        </mxCell>
        <mxCell id="heFnk6ymBudnLmRZltwZ-84" value="Marca como&lt;div&gt;favorito&lt;/div&gt;" style="rhombus;whiteSpace=wrap;html=1;" parent="1" vertex="1">
          <mxGeometry x="630" y="-1110" width="100" height="90" as="geometry" />
        </mxCell>
        <mxCell id="heFnk6ymBudnLmRZltwZ-99" value="" style="endArrow=none;html=1;rounded=0;entryX=1;entryY=0.75;entryDx=0;entryDy=0;exitX=0;exitY=0.5;exitDx=0;exitDy=0;" parent="1" source="heFnk6ymBudnLmRZltwZ-100" target="heFnk6ymBudnLmRZltwZ-13" edge="1">
          <mxGeometry width="50" height="50" relative="1" as="geometry">
            <mxPoint x="640" y="-940" as="sourcePoint" />
            <mxPoint x="414" y="-1055.5" as="targetPoint" />
          </mxGeometry>
        </mxCell>
        <mxCell id="xzjHd8r5uHAUz85wasI7-6" style="edgeStyle=orthogonalEdgeStyle;rounded=0;orthogonalLoop=1;jettySize=auto;html=1;exitX=0.5;exitY=1;exitDx=0;exitDy=0;entryX=0.5;entryY=0;entryDx=0;entryDy=0;endArrow=none;endFill=0;" edge="1" parent="1" source="heFnk6ymBudnLmRZltwZ-100" target="xzjHd8r5uHAUz85wasI7-5">
          <mxGeometry relative="1" as="geometry" />
        </mxCell>
        <mxCell id="heFnk6ymBudnLmRZltwZ-100" value="Pertenece&lt;div&gt;a&lt;/div&gt;" style="rhombus;whiteSpace=wrap;html=1;" parent="1" vertex="1">
          <mxGeometry x="640" y="-990" width="80" height="74" as="geometry" />
        </mxCell>
        <mxCell id="heFnk6ymBudnLmRZltwZ-101" value="id&lt;br&gt;grupo" style="ellipse;whiteSpace=wrap;html=1;" parent="1" vertex="1">
          <mxGeometry x="1030" y="-1194.5" width="80" height="40" as="geometry" />
        </mxCell>
        <mxCell id="heFnk6ymBudnLmRZltwZ-103" value="cantidad&lt;br&gt;comentarios" style="ellipse;whiteSpace=wrap;html=1;" parent="1" vertex="1">
          <mxGeometry x="1100" y="-1165" width="80" height="40" as="geometry" />
        </mxCell>
        <mxCell id="heFnk6ymBudnLmRZltwZ-104" value="url" style="ellipse;whiteSpace=wrap;html=1;" parent="1" vertex="1">
          <mxGeometry x="1150" y="-1125" width="80" height="40" as="geometry" />
        </mxCell>
        <mxCell id="heFnk6ymBudnLmRZltwZ-105" value="contenido" style="ellipse;whiteSpace=wrap;html=1;" parent="1" vertex="1">
          <mxGeometry x="1100" y="-1085" width="80" height="40" as="geometry" />
        </mxCell>
        <mxCell id="heFnk6ymBudnLmRZltwZ-106" value="&lt;u&gt;id&lt;br&gt;publicacion&lt;/u&gt;" style="ellipse;whiteSpace=wrap;html=1;" parent="1" vertex="1">
          <mxGeometry x="950" y="-1182.5" width="80" height="40" as="geometry" />
        </mxCell>
        <mxCell id="heFnk6ymBudnLmRZltwZ-108" value="" style="endArrow=none;html=1;rounded=0;entryX=0.5;entryY=1;entryDx=0;entryDy=0;exitX=0.14;exitY=0.007;exitDx=0;exitDy=0;exitPerimeter=0;" parent="1" source="heFnk6ymBudnLmRZltwZ-88" target="heFnk6ymBudnLmRZltwZ-106" edge="1">
          <mxGeometry width="50" height="50" relative="1" as="geometry">
            <mxPoint x="930" y="-1100" as="sourcePoint" />
            <mxPoint x="980" y="-1150" as="targetPoint" />
          </mxGeometry>
        </mxCell>
        <mxCell id="heFnk6ymBudnLmRZltwZ-109" value="" style="endArrow=none;html=1;rounded=0;entryX=0.5;entryY=1;entryDx=0;entryDy=0;exitX=0.75;exitY=0;exitDx=0;exitDy=0;" parent="1" source="heFnk6ymBudnLmRZltwZ-88" target="heFnk6ymBudnLmRZltwZ-101" edge="1">
          <mxGeometry width="50" height="50" relative="1" as="geometry">
            <mxPoint x="1013" y="-1100" as="sourcePoint" />
            <mxPoint x="990" y="-1130" as="targetPoint" />
          </mxGeometry>
        </mxCell>
        <mxCell id="heFnk6ymBudnLmRZltwZ-110" value="" style="endArrow=none;html=1;rounded=0;entryX=0;entryY=1;entryDx=0;entryDy=0;exitX=0.995;exitY=0.154;exitDx=0;exitDy=0;exitPerimeter=0;" parent="1" source="heFnk6ymBudnLmRZltwZ-88" target="heFnk6ymBudnLmRZltwZ-103" edge="1">
          <mxGeometry width="50" height="50" relative="1" as="geometry">
            <mxPoint x="1100" y="-1053" as="sourcePoint" />
            <mxPoint x="1119" y="-1110" as="targetPoint" />
          </mxGeometry>
        </mxCell>
        <mxCell id="heFnk6ymBudnLmRZltwZ-111" value="" style="endArrow=none;html=1;rounded=0;entryX=0;entryY=0.5;entryDx=0;entryDy=0;exitX=1;exitY=0.5;exitDx=0;exitDy=0;" parent="1" source="heFnk6ymBudnLmRZltwZ-88" target="heFnk6ymBudnLmRZltwZ-104" edge="1">
          <mxGeometry width="50" height="50" relative="1" as="geometry">
            <mxPoint x="1120" y="-1043" as="sourcePoint" />
            <mxPoint x="1139" y="-1100" as="targetPoint" />
          </mxGeometry>
        </mxCell>
        <mxCell id="heFnk6ymBudnLmRZltwZ-112" value="" style="endArrow=none;html=1;rounded=0;entryX=0;entryY=0.5;entryDx=0;entryDy=0;exitX=1;exitY=0.75;exitDx=0;exitDy=0;" parent="1" source="heFnk6ymBudnLmRZltwZ-88" target="heFnk6ymBudnLmRZltwZ-105" edge="1">
          <mxGeometry width="50" height="50" relative="1" as="geometry">
            <mxPoint x="1100" y="-1013" as="sourcePoint" />
            <mxPoint x="1119" y="-1070" as="targetPoint" />
          </mxGeometry>
        </mxCell>
        <mxCell id="heFnk6ymBudnLmRZltwZ-119" value="" style="group" parent="1" connectable="0" vertex="1">
          <mxGeometry x="1014.25" y="-1030" width="50" height="40" as="geometry" />
        </mxCell>
        <mxCell id="heFnk6ymBudnLmRZltwZ-117" value="" style="triangle;whiteSpace=wrap;html=1;rotation=90;" parent="heFnk6ymBudnLmRZltwZ-119" vertex="1">
          <mxGeometry x="5" y="-2.25" width="40" height="44.5" as="geometry" />
        </mxCell>
        <mxCell id="heFnk6ymBudnLmRZltwZ-118" value="Es&lt;div&gt;un&lt;/div&gt;" style="text;html=1;align=center;verticalAlign=middle;whiteSpace=wrap;rounded=0;" parent="heFnk6ymBudnLmRZltwZ-119" vertex="1">
          <mxGeometry y="5.5" width="50" height="20" as="geometry" />
        </mxCell>
        <mxCell id="heFnk6ymBudnLmRZltwZ-132" style="edgeStyle=orthogonalEdgeStyle;rounded=0;orthogonalLoop=1;jettySize=auto;html=1;exitX=0.5;exitY=1;exitDx=0;exitDy=0;entryX=0.5;entryY=0;entryDx=0;entryDy=0;endArrow=none;endFill=0;" parent="1" source="heFnk6ymBudnLmRZltwZ-121" target="heFnk6ymBudnLmRZltwZ-128" edge="1">
          <mxGeometry relative="1" as="geometry" />
        </mxCell>
        <mxCell id="heFnk6ymBudnLmRZltwZ-121" value="Imagen" style="rounded=0;whiteSpace=wrap;html=1;" parent="1" vertex="1">
          <mxGeometry x="891" y="-922.25" width="78" height="40" as="geometry" />
        </mxCell>
        <mxCell id="heFnk6ymBudnLmRZltwZ-122" value="Video" style="rounded=0;whiteSpace=wrap;html=1;" parent="1" vertex="1">
          <mxGeometry x="1001.5" y="-922.25" width="78" height="40" as="geometry" />
        </mxCell>
        <mxCell id="heFnk6ymBudnLmRZltwZ-123" value="Texto" style="rounded=0;whiteSpace=wrap;html=1;" parent="1" vertex="1">
          <mxGeometry x="1109.5" y="-922.25" width="78" height="40" as="geometry" />
        </mxCell>
        <mxCell id="heFnk6ymBudnLmRZltwZ-124" value="" style="endArrow=none;html=1;rounded=0;entryX=0.5;entryY=0;entryDx=0;entryDy=0;exitX=0.5;exitY=1;exitDx=0;exitDy=0;" parent="1" source="heFnk6ymBudnLmRZltwZ-117" target="heFnk6ymBudnLmRZltwZ-121" edge="1">
          <mxGeometry width="50" height="50" relative="1" as="geometry">
            <mxPoint x="1018.25" y="-952.25" as="sourcePoint" />
            <mxPoint x="1048.25" y="-935.25" as="targetPoint" />
          </mxGeometry>
        </mxCell>
        <mxCell id="heFnk6ymBudnLmRZltwZ-126" value="" style="endArrow=none;html=1;rounded=0;entryX=0.5;entryY=0;entryDx=0;entryDy=0;exitX=0.5;exitY=0;exitDx=0;exitDy=0;" parent="1" source="heFnk6ymBudnLmRZltwZ-117" target="heFnk6ymBudnLmRZltwZ-123" edge="1">
          <mxGeometry width="50" height="50" relative="1" as="geometry">
            <mxPoint x="1078.25" y="-992.25" as="sourcePoint" />
            <mxPoint x="1038.25" y="-844.25" as="targetPoint" />
          </mxGeometry>
        </mxCell>
        <mxCell id="heFnk6ymBudnLmRZltwZ-127" style="edgeStyle=orthogonalEdgeStyle;rounded=0;orthogonalLoop=1;jettySize=auto;html=1;entryX=0.477;entryY=-0.015;entryDx=0;entryDy=0;entryPerimeter=0;endArrow=none;endFill=0;" parent="1" source="heFnk6ymBudnLmRZltwZ-117" target="heFnk6ymBudnLmRZltwZ-122" edge="1">
          <mxGeometry relative="1" as="geometry" />
        </mxCell>
        <mxCell id="heFnk6ymBudnLmRZltwZ-128" value="foto" style="ellipse;whiteSpace=wrap;html=1;" parent="1" vertex="1">
          <mxGeometry x="890" y="-842.25" width="80" height="40" as="geometry" />
        </mxCell>
        <mxCell id="heFnk6ymBudnLmRZltwZ-129" value="duracion" style="ellipse;whiteSpace=wrap;html=1;" parent="1" vertex="1">
          <mxGeometry x="958.25" y="-772.25" width="80" height="40" as="geometry" />
        </mxCell>
        <mxCell id="heFnk6ymBudnLmRZltwZ-130" value="calidad" style="ellipse;whiteSpace=wrap;html=1;" parent="1" vertex="1">
          <mxGeometry x="1048.25" y="-772.25" width="80" height="40" as="geometry" />
        </mxCell>
        <mxCell id="heFnk6ymBudnLmRZltwZ-131" value="texto" style="ellipse;whiteSpace=wrap;html=1;" parent="1" vertex="1">
          <mxGeometry x="1107.5" y="-852.25" width="80" height="40" as="geometry" />
        </mxCell>
        <mxCell id="heFnk6ymBudnLmRZltwZ-133" style="edgeStyle=orthogonalEdgeStyle;rounded=0;orthogonalLoop=1;jettySize=auto;html=1;exitX=0.5;exitY=1;exitDx=0;exitDy=0;entryX=0.556;entryY=-0.009;entryDx=0;entryDy=0;entryPerimeter=0;endArrow=none;endFill=0;" parent="1" source="heFnk6ymBudnLmRZltwZ-123" target="heFnk6ymBudnLmRZltwZ-131" edge="1">
          <mxGeometry relative="1" as="geometry" />
        </mxCell>
        <mxCell id="heFnk6ymBudnLmRZltwZ-134" value="" style="endArrow=none;html=1;rounded=0;entryX=0.5;entryY=0;entryDx=0;entryDy=0;exitX=0.25;exitY=1;exitDx=0;exitDy=0;" parent="1" source="heFnk6ymBudnLmRZltwZ-122" target="heFnk6ymBudnLmRZltwZ-129" edge="1">
          <mxGeometry width="50" height="50" relative="1" as="geometry">
            <mxPoint x="1218.25" y="-852.25" as="sourcePoint" />
            <mxPoint x="1316.25" y="-764.25" as="targetPoint" />
          </mxGeometry>
        </mxCell>
        <mxCell id="heFnk6ymBudnLmRZltwZ-135" value="" style="endArrow=none;html=1;rounded=0;entryX=0.5;entryY=0;entryDx=0;entryDy=0;exitX=0.75;exitY=1;exitDx=0;exitDy=0;" parent="1" source="heFnk6ymBudnLmRZltwZ-122" target="heFnk6ymBudnLmRZltwZ-130" edge="1">
          <mxGeometry width="50" height="50" relative="1" as="geometry">
            <mxPoint x="1061.25" y="-852.25" as="sourcePoint" />
            <mxPoint x="1038.25" y="-742.25" as="targetPoint" />
          </mxGeometry>
        </mxCell>
        <mxCell id="heFnk6ymBudnLmRZltwZ-136" value="Grupo" style="rounded=0;whiteSpace=wrap;html=1;" parent="1" vertex="1">
          <mxGeometry x="790" y="-975" width="80" height="40" as="geometry" />
        </mxCell>
        <mxCell id="heFnk6ymBudnLmRZltwZ-138" value="(0,M)" style="text;html=1;align=center;verticalAlign=middle;resizable=0;points=[];autosize=1;strokeColor=none;fillColor=none;" parent="1" vertex="1">
          <mxGeometry x="565" y="-1010" width="50" height="30" as="geometry" />
        </mxCell>
        <mxCell id="heFnk6ymBudnLmRZltwZ-139" value="(1,M)" style="text;html=1;align=center;verticalAlign=middle;resizable=0;points=[];autosize=1;strokeColor=none;fillColor=none;" parent="1" vertex="1">
          <mxGeometry x="740" y="-975" width="50" height="30" as="geometry" />
        </mxCell>
        <mxCell id="heFnk6ymBudnLmRZltwZ-140" value="nombre" style="ellipse;whiteSpace=wrap;html=1;" parent="1" vertex="1">
          <mxGeometry x="714" y="-916" width="80" height="40" as="geometry" />
        </mxCell>
        <mxCell id="heFnk6ymBudnLmRZltwZ-141" value="descripcion" style="ellipse;whiteSpace=wrap;html=1;" parent="1" vertex="1">
          <mxGeometry x="725" y="-872.25" width="80" height="40" as="geometry" />
        </mxCell>
        <mxCell id="heFnk6ymBudnLmRZltwZ-143" value="fecha&lt;div&gt;creacion&lt;/div&gt;" style="ellipse;whiteSpace=wrap;html=1;" parent="1" vertex="1">
          <mxGeometry x="740" y="-820" width="80" height="40" as="geometry" />
        </mxCell>
        <mxCell id="heFnk6ymBudnLmRZltwZ-144" value="&lt;u&gt;id&lt;/u&gt;&lt;div&gt;&lt;u&gt;grupo&lt;/u&gt;&lt;/div&gt;" style="ellipse;whiteSpace=wrap;html=1;" parent="1" vertex="1">
          <mxGeometry x="787" y="-780" width="80" height="40" as="geometry" />
        </mxCell>
        <mxCell id="heFnk6ymBudnLmRZltwZ-145" value="" style="endArrow=none;html=1;rounded=0;entryX=1;entryY=0;entryDx=0;entryDy=0;exitX=0.14;exitY=0.997;exitDx=0;exitDy=0;exitPerimeter=0;" parent="1" source="heFnk6ymBudnLmRZltwZ-136" target="heFnk6ymBudnLmRZltwZ-140" edge="1">
          <mxGeometry width="50" height="50" relative="1" as="geometry">
            <mxPoint x="903" y="-935" as="sourcePoint" />
            <mxPoint x="880" y="-825" as="targetPoint" />
          </mxGeometry>
        </mxCell>
        <mxCell id="heFnk6ymBudnLmRZltwZ-146" value="" style="endArrow=none;html=1;rounded=0;entryX=1;entryY=0;entryDx=0;entryDy=0;exitX=0.25;exitY=1;exitDx=0;exitDy=0;" parent="1" source="heFnk6ymBudnLmRZltwZ-136" target="heFnk6ymBudnLmRZltwZ-141" edge="1">
          <mxGeometry width="50" height="50" relative="1" as="geometry">
            <mxPoint x="870" y="-915" as="sourcePoint" />
            <mxPoint x="830" y="-885" as="targetPoint" />
          </mxGeometry>
        </mxCell>
        <mxCell id="heFnk6ymBudnLmRZltwZ-148" value="" style="endArrow=none;html=1;rounded=0;entryX=1;entryY=0;entryDx=0;entryDy=0;exitX=0.352;exitY=1.007;exitDx=0;exitDy=0;exitPerimeter=0;" parent="1" source="heFnk6ymBudnLmRZltwZ-136" target="heFnk6ymBudnLmRZltwZ-143" edge="1">
          <mxGeometry width="50" height="50" relative="1" as="geometry">
            <mxPoint x="887" y="-925" as="sourcePoint" />
            <mxPoint x="850" y="-839" as="targetPoint" />
          </mxGeometry>
        </mxCell>
        <mxCell id="heFnk6ymBudnLmRZltwZ-149" value="" style="endArrow=none;html=1;rounded=0;entryX=0.5;entryY=0;entryDx=0;entryDy=0;exitX=0.5;exitY=1;exitDx=0;exitDy=0;" parent="1" source="heFnk6ymBudnLmRZltwZ-136" target="heFnk6ymBudnLmRZltwZ-144" edge="1">
          <mxGeometry width="50" height="50" relative="1" as="geometry">
            <mxPoint x="897" y="-925" as="sourcePoint" />
            <mxPoint x="860" y="-839" as="targetPoint" />
          </mxGeometry>
        </mxCell>
        <mxCell id="heFnk6ymBudnLmRZltwZ-151" value="" style="endArrow=none;html=1;rounded=0;entryX=1;entryY=0.5;entryDx=0;entryDy=0;exitX=0.012;exitY=0.592;exitDx=0;exitDy=0;exitPerimeter=0;" parent="1" source="heFnk6ymBudnLmRZltwZ-136" target="heFnk6ymBudnLmRZltwZ-100" edge="1">
          <mxGeometry width="50" height="50" relative="1" as="geometry">
            <mxPoint x="954.5" y="-820.75" as="sourcePoint" />
            <mxPoint x="742.5" y="-941.75" as="targetPoint" />
          </mxGeometry>
        </mxCell>
        <mxCell id="heFnk6ymBudnLmRZltwZ-152" value="" style="endArrow=none;html=1;rounded=0;entryX=0;entryY=0.5;entryDx=0;entryDy=0;exitX=0.598;exitY=1.025;exitDx=0;exitDy=0;exitPerimeter=0;" parent="1" source="heFnk6ymBudnLmRZltwZ-88" target="heFnk6ymBudnLmRZltwZ-117" edge="1">
          <mxGeometry width="50" height="50" relative="1" as="geometry">
            <mxPoint x="1200" y="-1000" as="sourcePoint" />
            <mxPoint x="1220" y="-960" as="targetPoint" />
          </mxGeometry>
        </mxCell>
        <mxCell id="heFnk6ymBudnLmRZltwZ-153" value="" style="endArrow=none;html=1;rounded=0;entryX=0.25;entryY=0;entryDx=0;entryDy=0;exitX=0.5;exitY=1;exitDx=0;exitDy=0;" parent="1" source="heFnk6ymBudnLmRZltwZ-40" target="heFnk6ymBudnLmRZltwZ-4" edge="1">
          <mxGeometry width="50" height="50" relative="1" as="geometry">
            <mxPoint x="430" y="-860" as="sourcePoint" />
            <mxPoint x="450" y="-820" as="targetPoint" />
          </mxGeometry>
        </mxCell>
        <mxCell id="heFnk6ymBudnLmRZltwZ-154" value="" style="endArrow=none;html=1;rounded=0;entryX=0.75;entryY=0;entryDx=0;entryDy=0;exitX=0.5;exitY=1;exitDx=0;exitDy=0;" parent="1" source="heFnk6ymBudnLmRZltwZ-10" target="heFnk6ymBudnLmRZltwZ-4" edge="1">
          <mxGeometry width="50" height="50" relative="1" as="geometry">
            <mxPoint x="510" y="-820" as="sourcePoint" />
            <mxPoint x="530" y="-780" as="targetPoint" />
          </mxGeometry>
        </mxCell>
        <mxCell id="heFnk6ymBudnLmRZltwZ-155" value="" style="endArrow=none;html=1;rounded=0;entryX=0.5;entryY=0;entryDx=0;entryDy=0;exitX=0.75;exitY=1;exitDx=0;exitDy=0;" parent="1" source="heFnk6ymBudnLmRZltwZ-13" target="heFnk6ymBudnLmRZltwZ-10" edge="1">
          <mxGeometry width="50" height="50" relative="1" as="geometry">
            <mxPoint x="540" y="-860" as="sourcePoint" />
            <mxPoint x="560" y="-820" as="targetPoint" />
          </mxGeometry>
        </mxCell>
        <mxCell id="heFnk6ymBudnLmRZltwZ-156" value="" style="endArrow=none;html=1;rounded=0;entryX=0.5;entryY=0;entryDx=0;entryDy=0;exitX=0.25;exitY=1;exitDx=0;exitDy=0;" parent="1" source="heFnk6ymBudnLmRZltwZ-13" target="heFnk6ymBudnLmRZltwZ-40" edge="1">
          <mxGeometry width="50" height="50" relative="1" as="geometry">
            <mxPoint x="370" y="-1010" as="sourcePoint" />
            <mxPoint x="390" y="-970" as="targetPoint" />
          </mxGeometry>
        </mxCell>
        <mxCell id="xzjHd8r5uHAUz85wasI7-2" value="fecha_de_inicio" style="ellipse;whiteSpace=wrap;html=1;" vertex="1" parent="1">
          <mxGeometry x="50" y="-1020" width="110" height="40" as="geometry" />
        </mxCell>
        <mxCell id="xzjHd8r5uHAUz85wasI7-5" value="fecha de ingreso" style="ellipse;whiteSpace=wrap;html=1;" vertex="1" parent="1">
          <mxGeometry x="645" y="-870" width="70" height="40" as="geometry" />
        </mxCell>
      </root>
    </mxGraphModel>
  </diagram>
</mxfile>
